<?xml version="1.0" encoding="utf-8"?>
<!-- Generator: Adobe Illustrator 16.0.0, SVG Export Plug-In . SVG Version: 6.00 Build 0)  -->
<!DOCTYPE svg PUBLIC "-//W3C//DTD SVG 1.1//EN" "http://www.w3.org/Graphics/SVG/1.1/DTD/svg11.dtd">
<svg version="1.1" id="ball_1_" xmlns="http://www.w3.org/2000/svg" xmlns:xlink="http://www.w3.org/1999/xlink" x="0px" y="0px"
	 width="60px" height="60px" viewBox="0 0 60 60" enable-background="new 0 0 60 60" xml:space="preserve">
<g id="ball">
	<g>
		<path fill="#EA4C89" d="M30,0C13.458,0,0,13.458,0,30c0,16.543,13.458,30,30,30c16.541,0,30-13.457,30-30C60,13.458,46.541,0,30,0
			z M49.835,13.835c3.567,4.36,5.729,9.914,5.786,15.962c-0.846-0.179-9.316-1.896-17.844-0.824c-0.18-0.438-0.363-0.88-0.553-1.322
			c-0.531-1.25-1.104-2.491-1.699-3.712C45,20.07,49.295,14.566,49.835,13.835z M30,4.414c6.512,0,12.461,2.442,16.984,6.458
			c-0.459,0.657-4.316,5.841-13.428,9.256c-4.2-7.714-8.854-14.052-9.562-15.001C25.922,4.662,27.934,4.414,30,4.414z M19.105,6.849
			c0.676,0.927,5.254,7.271,9.5,14.82c-11.986,3.183-22.543,3.138-23.689,3.122C6.578,16.839,11.937,10.23,19.105,6.849z
			 M4.375,30.039c0-0.262,0.005-0.521,0.014-0.782c1.12,0.023,13.538,0.183,26.335-3.647c0.731,1.437,1.435,2.894,2.075,4.35
			c-0.338,0.096-0.675,0.197-1.009,0.305c-13.215,4.271-20.249,15.918-20.829,16.91C6.87,42.629,4.375,36.619,4.375,30.039z
			 M30,55.664c-5.924,0-11.384-2.021-15.729-5.41c0.461-0.941,5.649-10.965,20.102-16.001c0.059-0.021,0.111-0.037,0.17-0.058
			c3.598,9.349,5.086,17.184,5.467,19.433C36.932,54.938,33.549,55.664,30,55.664z M44.318,51.281
			c-0.264-1.559-1.629-9.062-4.979-18.271c8.03-1.285,15.085,0.818,15.962,1.096C54.158,41.234,50.066,47.395,44.318,51.281z"/>
	</g>
</g>
</svg>
