<?xml version="1.0" encoding="utf-8"?>
<!-- Generator: Adobe Illustrator 16.0.0, SVG Export Plug-In . SVG Version: 6.00 Build 0)  -->
<!DOCTYPE svg PUBLIC "-//W3C//DTD SVG 1.1//EN" "http://www.w3.org/Graphics/SVG/1.1/DTD/svg11.dtd">
<svg version="1.1" id="ball_1_" xmlns="http://www.w3.org/2000/svg" xmlns:xlink="http://www.w3.org/1999/xlink" x="0px" y="0px"
	 width="60px" height="60px" viewBox="6 6 60 60" enable-background="new 6 6 60 60" xml:space="preserve">
<g id="ball">
	<g>
		<path fill="#EA4C89" d="M36,6C19.458,6,6,19.458,6,36c0,16.543,13.458,30,30,30c16.541,0,30-13.457,30-30C66,19.458,52.541,6,36,6
			z M55.835,19.835c3.568,4.36,5.729,9.914,5.786,15.962c-0.846-0.179-9.317-1.896-17.844-0.825
			c-0.179-0.438-0.363-0.879-0.552-1.322c-0.532-1.25-1.104-2.491-1.7-3.712C51,26.07,55.295,20.566,55.835,19.835z M36,10.414
			c6.511,0,12.461,2.442,16.985,6.458c-0.46,0.657-4.317,5.841-13.429,9.256c-4.199-7.714-8.854-14.052-9.562-15.001
			C31.922,10.662,33.933,10.414,36,10.414z M25.105,12.849c0.676,0.927,5.254,7.271,9.5,14.82
			c-11.986,3.183-22.543,3.137-23.689,3.122C12.578,22.839,17.937,16.23,25.105,12.849z M10.375,36.039
			c0-0.262,0.005-0.522,0.014-0.782c1.12,0.023,13.538,0.183,26.336-3.647c0.732,1.436,1.434,2.893,2.076,4.349
			c-0.338,0.096-0.675,0.197-1.009,0.305c-13.215,4.271-20.249,15.917-20.829,16.91C12.87,48.629,10.375,42.619,10.375,36.039z
			 M36,61.664c-5.924,0-11.384-2.021-15.729-5.41c0.461-0.941,5.649-10.965,20.102-16.001c0.058-0.02,0.112-0.037,0.17-0.057
			c3.597,9.348,5.086,17.183,5.467,19.432C42.932,60.938,39.549,61.664,36,61.664z M50.318,57.281
			c-0.264-1.559-1.628-9.06-4.979-18.271c8.03-1.285,15.085,0.818,15.962,1.095C60.158,47.235,56.066,53.395,50.318,57.281z"/>
	</g>
</g>
</svg>
