<?xml version="1.0" encoding="utf-8"?>
<!-- Generator: Adobe Illustrator 16.0.0, SVG Export Plug-In . SVG Version: 6.00 Build 0)  -->
<!DOCTYPE svg PUBLIC "-//W3C//DTD SVG 1.1//EN" "http://www.w3.org/Graphics/SVG/1.1/DTD/svg11.dtd">
<svg version="1.1" id="Layer_1" xmlns="http://www.w3.org/2000/svg" xmlns:xlink="http://www.w3.org/1999/xlink" x="0px" y="0px"
	 width="60px" height="60px" viewBox="6 6 60 60" enable-background="new 6 6 60 60" xml:space="preserve">
<path d="M35.943,6C19.398,6,6,19.427,6,35.999C6,52.577,19.398,66,35.943,66C52.603,66,66,52.575,66,35.999
	C66,19.427,52.603,6,35.943,6z M10.954,39.875c3.746-0.575,6.275-0.295,8.914-0.204c0.142,0.365,0.295,0.721,0.469,1.065
	c-2.581,0.09-5.206,0.008-9.041,0.897C11.167,41.052,11.052,40.472,10.954,39.875z M29.83,50.353
	c-1.198,0.587-5.008,2.008-7.304-1.923c0,0-1.288-2.34-3.732-2.515c0,0-2.38-0.028-0.167,1.481c0,0,1.597,0.747,2.703,3.562
	c0,0,1.447,4.805,8.347,3.236l0.02,4.969c0,0-0.052,0.632-0.444,1.268C20.389,58,13.471,50.856,11.348,41.848
	c3.88-0.903,6.545-0.811,9.106-0.899c1.788,3.312,5.29,5.437,11.518,6.085C31.083,47.633,30.189,48.646,29.83,50.353z
	 M29.231,51.479c0,0.186-0.212,0.33-0.47,0.334c-0.263,0-0.475-0.146-0.475-0.329c0-0.18,0.212-0.33,0.47-0.33
	C29.019,51.151,29.231,51.301,29.231,51.479z M27.68,51.747c0.006,0.176-0.207,0.327-0.468,0.327c-0.264,0-0.476-0.148-0.476-0.327
	c0-0.186,0.212-0.332,0.476-0.332C27.466,51.414,27.68,51.559,27.68,51.747z M26.155,51.749c0,0.177-0.207,0.329-0.469,0.33
	c-0.271,0-0.476-0.149-0.483-0.329c0-0.186,0.212-0.331,0.475-0.331C25.943,51.421,26.155,51.566,26.155,51.749z M24.616,51.166
	c0,0.184-0.211,0.332-0.476,0.332c-0.258,0-0.468-0.146-0.468-0.332c0-0.178,0.206-0.329,0.468-0.329
	C24.404,50.835,24.616,50.985,24.616,51.166z M21.502,47.847c0.258,0,0.476,0.144,0.476,0.328s-0.219,0.329-0.476,0.331
	c-0.264,0-0.475-0.145-0.475-0.328C21.025,47.994,21.238,47.847,21.502,47.847z M20.698,47.556
	c-0.264,0.005-0.475-0.147-0.483-0.328c0-0.185,0.22-0.33,0.476-0.33c0.262-0.003,0.477,0.145,0.477,0.325
	C21.173,47.408,20.954,47.556,20.698,47.556z M22.235,48.939c0.258,0,0.475,0.148,0.475,0.329c0,0.184-0.212,0.33-0.47,0.334
	c-0.262,0-0.481-0.147-0.481-0.328C21.759,49.092,21.972,48.939,22.235,48.939z M23.046,49.963c0.259,0,0.47,0.148,0.47,0.329
	c0,0.188-0.207,0.331-0.47,0.335c-0.263,0-0.476-0.148-0.476-0.331C22.57,50.118,22.783,49.967,23.046,49.963z M19.848,46.498
	c0,0.181-0.206,0.33-0.468,0.331c-0.264,0-0.477-0.146-0.477-0.328c0-0.186,0.212-0.332,0.477-0.332
	C19.636,46.167,19.848,46.314,19.848,46.498z M32.897,61.148c-0.334-0.043-0.663-0.085-0.99-0.136
	c0.341-0.404,0.568-0.968,0.562-1.782l-0.015-5.424c0,0-0.192-2.143,0.861-2.896l0.033,8.901
	C33.348,59.812,33.276,60.47,32.897,61.148z M35.948,61.334c-0.018,0-0.037-0.004-0.052-0.004c0.212-0.435,0.348-0.981,0.375-1.676
	l0.038-9.008l0.741-0.003l0.095,9.004c0.034,0.677,0.169,1.213,0.362,1.634C36.989,61.312,36.47,61.334,35.948,61.334z
	 M40.26,60.964c-0.167-0.635-0.186-1.178-0.186-1.178l-0.033-8.823c1.058,0.816,0.889,2.816,0.889,2.816l0.019,5.422
	c0,0.673,0.154,1.177,0.398,1.557C40.987,60.839,40.621,60.903,40.26,60.964z M44.25,59.951c-0.469-0.438-0.528-0.834-0.528-0.834
	l-0.026-7.105c-0.008-2.77-1.179-4.229-2.316-5.002c6.629-0.683,9.809-2.841,11.262-6.182c2.542,0.062,4.344-0.212,8.098,0.646
	C58.837,50.121,52.525,57.099,44.25,59.951z M60.787,41.266c-3.712-0.853-5.495-0.591-8.05-0.657
	c0.136-0.336,0.258-0.688,0.362-1.049c2.565-0.12,4.427-0.538,7.991-0.046C61.006,40.108,60.91,40.687,60.787,41.266z
	 M53.161,39.338c0.483-1.778,0.63-3.821,0.619-6.1c-0.008-3.27-1.249-5.882-3.244-7.862c0.342-1.126,0.798-3.626-0.488-6.822
	c0,0-2.253-0.705-7.339,2.726c-1.994-0.492-4.116-0.728-6.239-0.725c-2.344,0.01-4.706,0.316-6.908,0.93
	c-5.269-3.572-7.587-2.829-7.587-2.829c-1.499,3.8-0.553,6.604-0.27,7.301c-1.763,1.931-2.844,4.393-2.837,7.403
	c0.013,2.272,0.276,4.311,0.914,6.081c-2.644-0.083-5.155-0.358-8.854,0.212c-0.174-1.191-0.263-2.412-0.263-3.657
	c-0.007-13.99,11.32-25.336,25.283-25.336c14.074,0,25.394,11.346,25.394,25.336c0,1.12-0.085,2.219-0.227,3.301
	C57.582,38.808,55.736,39.223,53.161,39.338z"/>
</svg>
