<?xml version="1.0" encoding="utf-8"?>
<!-- Generator: Adobe Illustrator 16.0.4, SVG Export Plug-In . SVG Version: 6.00 Build 0)  -->
<!DOCTYPE svg PUBLIC "-//W3C//DTD SVG 1.1//EN" "http://www.w3.org/Graphics/SVG/1.1/DTD/svg11.dtd">
<svg version="1.1" id="Layer_1" xmlns="http://www.w3.org/2000/svg" xmlns:xlink="http://www.w3.org/1999/xlink" x="0px" y="0px"
	 width="60.461px" height="58.97px" viewBox="0 0 60.461 58.97" enable-background="new 0 0 60.461 58.97" xml:space="preserve">
<path fill-rule="evenodd" clip-rule="evenodd" fill="#181616" d="M30.229,0C13.537,0,0,13.535,0,30.232
	c0,13.356,8.661,24.687,20.676,28.686c1.512,0.276,2.063-0.656,2.063-1.457c0-0.718-0.027-2.62-0.041-5.143
	c-8.409,1.827-10.184-4.052-10.184-4.052c-1.375-3.493-3.356-4.423-3.356-4.423c-2.745-1.875,0.207-1.837,0.207-1.837
	c3.034,0.213,4.631,3.114,4.631,3.114c2.697,4.62,7.075,3.286,8.798,2.513c0.275-1.954,1.056-3.286,1.92-4.041
	C18,42.829,10.943,40.235,10.943,28.651c0-3.301,1.178-6,3.111-8.112c-0.311-0.765-1.348-3.839,0.297-8.001
	c0,0,2.538-0.812,8.313,3.099c2.412-0.67,4.998-1.006,7.568-1.018c2.568,0.012,5.153,0.347,7.568,1.018
	c5.772-3.912,8.307-3.099,8.307-3.099c1.648,4.162,0.611,7.236,0.301,8.001c1.936,2.113,3.106,4.812,3.106,8.112
	c0,11.614-7.068,14.168-13.804,14.917c1.086,0.934,2.053,2.778,2.053,5.599c0,4.041-0.036,7.302-0.036,8.294
	c0,0.808,0.543,1.748,2.078,1.453c12.003-4.006,20.655-15.33,20.655-28.682C60.461,13.535,46.927,0,30.229,0z"/>
</svg>
