<?xml version="1.0" encoding="utf-8"?>
<!-- Generator: Adobe Illustrator 16.0.0, SVG Export Plug-In . SVG Version: 6.00 Build 0)  -->
<!DOCTYPE svg PUBLIC "-//W3C//DTD SVG 1.1//EN" "http://www.w3.org/Graphics/SVG/1.1/DTD/svg11.dtd">
<svg version="1.1" id="Layer_1" xmlns="http://www.w3.org/2000/svg" xmlns:xlink="http://www.w3.org/1999/xlink" x="0px" y="0px"
	 width="60px" height="60px" viewBox="0 0 60 60" enable-background="new 0 0 60 60" xml:space="preserve">
<path d="M29.943,0C13.398,0,0,13.427,0,29.999C0,46.577,13.398,60,29.943,60C46.604,60,60,46.575,60,29.999
	C60,13.427,46.604,0,29.943,0z M4.954,33.875c3.746-0.575,6.275-0.295,8.914-0.204c0.142,0.365,0.295,0.722,0.469,1.065
	c-2.581,0.09-5.206,0.008-9.041,0.896C5.167,35.052,5.052,34.473,4.954,33.875z M23.83,44.354c-1.198,0.586-5.008,2.008-7.304-1.924
	c0,0-1.288-2.34-3.732-2.515c0,0-2.38-0.028-0.167,1.481c0,0,1.597,0.746,2.703,3.562c0,0,1.447,4.806,8.347,3.235l0.02,4.97
	c0,0-0.052,0.632-0.444,1.269C14.389,52,7.471,44.855,5.348,35.848c3.88-0.902,6.545-0.811,9.106-0.898
	c1.788,3.312,5.29,5.437,11.519,6.085C25.083,41.633,24.189,42.646,23.83,44.354z M23.231,45.479c0,0.187-0.212,0.33-0.47,0.334
	c-0.263,0-0.475-0.146-0.475-0.328c0-0.18,0.212-0.33,0.47-0.33C23.019,45.15,23.231,45.301,23.231,45.479z M21.68,45.747
	c0.006,0.176-0.207,0.327-0.468,0.327c-0.264,0-0.476-0.148-0.476-0.327c0-0.187,0.212-0.332,0.476-0.332
	C21.466,45.414,21.68,45.559,21.68,45.747z M20.155,45.749c0,0.177-0.207,0.329-0.469,0.33c-0.271,0-0.476-0.149-0.483-0.329
	c0-0.186,0.212-0.331,0.475-0.331C19.943,45.421,20.155,45.566,20.155,45.749z M18.616,45.166c0,0.184-0.211,0.332-0.476,0.332
	c-0.258,0-0.468-0.146-0.468-0.332c0-0.178,0.206-0.329,0.468-0.329C18.404,44.835,18.616,44.984,18.616,45.166z M15.502,41.848
	c0.258,0,0.476,0.144,0.476,0.327c0,0.185-0.219,0.329-0.476,0.331c-0.264,0-0.475-0.145-0.475-0.328
	C15.025,41.994,15.238,41.848,15.502,41.848z M14.698,41.557c-0.264,0.004-0.475-0.147-0.483-0.328c0-0.186,0.22-0.33,0.476-0.33
	c0.262-0.004,0.477,0.145,0.477,0.324C15.173,41.408,14.954,41.557,14.698,41.557z M16.235,42.939c0.258,0,0.475,0.147,0.475,0.328
	c0,0.185-0.212,0.33-0.47,0.334c-0.262,0-0.481-0.146-0.481-0.328S15.972,42.939,16.235,42.939z M17.046,43.963
	c0.259,0,0.47,0.148,0.47,0.329c0,0.188-0.207,0.331-0.47,0.335c-0.263,0-0.476-0.148-0.476-0.331
	C16.57,44.118,16.783,43.967,17.046,43.963z M13.848,40.498c0,0.182-0.206,0.33-0.468,0.331c-0.264,0-0.477-0.146-0.477-0.328
	c0-0.187,0.212-0.332,0.477-0.332C13.636,40.167,13.848,40.314,13.848,40.498z M26.896,55.148c-0.334-0.043-0.662-0.086-0.989-0.137
	c0.341-0.404,0.567-0.968,0.562-1.781l-0.015-5.424c0,0-0.192-2.144,0.86-2.896l0.033,8.9C27.348,53.812,27.275,54.47,26.896,55.148
	z M29.948,55.334c-0.019,0-0.037-0.004-0.052-0.004c0.211-0.436,0.348-0.98,0.375-1.676l0.037-9.008l0.741-0.004l0.095,9.004
	c0.035,0.678,0.17,1.213,0.362,1.635C30.988,55.312,30.471,55.334,29.948,55.334z M34.26,54.964
	c-0.167-0.635-0.186-1.178-0.186-1.178l-0.033-8.823c1.059,0.816,0.889,2.816,0.889,2.816l0.02,5.422
	c0,0.673,0.154,1.177,0.398,1.557C34.986,54.839,34.621,54.902,34.26,54.964z M38.25,53.951c-0.469-0.438-0.527-0.834-0.527-0.834
	l-0.027-7.105c-0.008-2.77-1.178-4.229-2.315-5.002c6.629-0.683,9.81-2.841,11.263-6.182c2.541,0.062,4.344-0.212,8.098,0.646
	C52.837,44.121,46.525,51.1,38.25,53.951z M54.787,35.266c-3.712-0.853-5.495-0.591-8.051-0.656
	c0.137-0.336,0.259-0.688,0.363-1.049c2.564-0.121,4.426-0.539,7.99-0.047C55.006,34.107,54.91,34.688,54.787,35.266z
	 M47.161,33.338c0.483-1.777,0.63-3.82,0.618-6.1c-0.008-3.271-1.248-5.882-3.243-7.862c0.342-1.126,0.798-3.626-0.488-6.822
	c0,0-2.253-0.705-7.339,2.726c-1.994-0.492-4.116-0.729-6.238-0.725c-2.345,0.01-4.707,0.316-6.909,0.93
	c-5.269-3.572-7.587-2.829-7.587-2.829c-1.499,3.8-0.553,6.604-0.27,7.301c-1.763,1.931-2.844,4.393-2.837,7.402
	c0.013,2.272,0.276,4.312,0.914,6.082c-2.644-0.084-5.155-0.358-8.854,0.211c-0.174-1.19-0.263-2.411-0.263-3.656
	C4.658,16.006,15.985,4.66,29.948,4.66c14.073,0,25.394,11.346,25.394,25.336c0,1.12-0.085,2.219-0.227,3.301
	C51.582,32.809,49.736,33.223,47.161,33.338z"/>
</svg>
