<?xml version="1.0" encoding="utf-8"?>
<!-- Generator: Adobe Illustrator 16.0.0, SVG Export Plug-In . SVG Version: 6.00 Build 0)  -->
<!DOCTYPE svg PUBLIC "-//W3C//DTD SVG 1.1//EN" "http://www.w3.org/Graphics/SVG/1.1/DTD/svg11.dtd">
<svg version="1.1" id="Layer_1" xmlns="http://www.w3.org/2000/svg" xmlns:xlink="http://www.w3.org/1999/xlink" x="0px" y="0px"
	 width="60px" height="60px" viewBox="6 6 60 60" enable-background="new 6 6 60 60" xml:space="preserve">
<path fill="#515050" d="M56.72,14.305C51.476,9.258,44.354,6.28,37.092,6h-2.387c-7.349,0.353-14.536,3.438-19.761,8.631
	C9.58,19.872,6.37,27.168,6,34.65v2.542c0.332,8.229,4.184,16.247,10.47,21.58C21.567,63.18,28.181,65.729,34.907,66h2.116
	c8.368-0.279,16.532-4.216,21.896-10.649c4.321-5.061,6.806-11.6,7.08-18.24v-2.303C65.677,27.114,62.315,19.6,56.72,14.305z
	 M48.173,43.956c-0.789,2.778-1.714,5.521-2.387,8.329c-1.331-1.298-2.652-2.612-3.973-3.924c-4.142,2.841-8.212,5.785-12.337,8.651
	c-3.41-13.539-6.962-27.041-10.359-40.584c7.366,3.869,14.635,7.928,21.968,11.86c6.232,3.404,12.498,6.75,18.721,10.18
	C55.937,40.314,52.053,42.128,48.173,43.956z"/>
<path fill="#515050" d="M19.427,16.657c9.163,8.749,18.37,17.455,27.569,26.167c-0.637,2.372-1.323,4.729-1.896,7.116
	c-0.649-1.315-0.698-2.938-1.765-4.021c-7.637-9.277-15.232-18.594-22.875-27.865C20.201,17.707,19.686,17.009,19.427,16.657z"/>
</svg>
