<?xml version="1.0" encoding="utf-8"?>
<!-- Generator: Adobe Illustrator 16.0.0, SVG Export Plug-In . SVG Version: 6.00 Build 0)  -->
<!DOCTYPE svg PUBLIC "-//W3C//DTD SVG 1.1//EN" "http://www.w3.org/Graphics/SVG/1.1/DTD/svg11.dtd">
<svg version="1.1" id="Layer_1" xmlns="http://www.w3.org/2000/svg" xmlns:xlink="http://www.w3.org/1999/xlink" x="0px" y="0px"
	 width="60px" height="60px" viewBox="0 0 60 60" enable-background="new 0 0 60 60" xml:space="preserve">
<path fill="#515050" d="M50.722,8.305C45.478,3.258,38.354,0.28,31.093,0h-2.387C21.357,0.353,14.17,3.438,8.945,8.631
	c-5.364,5.241-8.574,12.537-8.944,20.02v2.541c0.332,8.229,4.184,16.248,10.47,21.58C15.568,57.18,22.182,59.729,28.908,60h2.116
	c8.367-0.279,16.531-4.216,21.896-10.648c4.321-5.062,6.806-11.601,7.08-18.24v-2.303C59.678,21.114,56.315,13.6,50.722,8.305z
	 M42.174,37.956c-0.789,2.778-1.714,5.521-2.387,8.329c-1.331-1.299-2.652-2.612-3.974-3.924c-4.142,2.841-8.211,5.785-12.336,8.65
	c-3.41-13.539-6.962-27.041-10.359-40.584c7.366,3.869,14.635,7.928,21.968,11.86c6.231,3.403,12.498,6.75,18.722,10.18
	C49.938,34.314,46.054,36.128,42.174,37.956z"/>
<path fill="#515050" d="M13.428,10.657c9.163,8.749,18.37,17.454,27.569,26.167c-0.637,2.371-1.323,4.729-1.896,7.115
	c-0.648-1.314-0.697-2.938-1.765-4.021c-7.637-9.276-15.232-18.594-22.875-27.865C14.202,11.707,13.687,11.009,13.428,10.657z"/>
</svg>
