<?xml version="1.0" encoding="utf-8"?>
<!-- Generator: Adobe Illustrator 16.0.0, SVG Export Plug-In . SVG Version: 6.00 Build 0)  -->
<!DOCTYPE svg PUBLIC "-//W3C//DTD SVG 1.1//EN" "http://www.w3.org/Graphics/SVG/1.1/DTD/svg11.dtd">
<svg version="1.1" id="Layer_1" xmlns="http://www.w3.org/2000/svg" xmlns:xlink="http://www.w3.org/1999/xlink" x="0px" y="0px"
	 width="60px" height="60px" viewBox="6 6 60 60" enable-background="new 6 6 60 60" xml:space="preserve">
<g>
	<path fill="#96C0E6" d="M36,6C19.432,6,6,19.432,6,36c0,16.57,13.432,30,30,30s30-13.43,30-30C66,19.432,52.568,6,36,6z
		 M25.894,37.376c-0.088,0.859,0.245,1.703,0.424,2.388c0.191,0.739,0.387,1.496,0.308,2.505c-0.241,3.095-2.514,5.344-5.316,5.856
		c-3.455,0.631-6.109-1.469-7.089-3.853c-0.547-1.334-0.684-3.173-0.116-4.7c0.723-1.944,2.231-3.467,4.354-4.045
		c0.73-0.2,1.495-0.31,2.157-0.617c0.901-0.417,1.667-1.348,1.656-2.62c-0.005-0.631-0.26-1.167-0.423-1.733
		c-0.167-0.584-0.298-1.167-0.347-1.812c-0.098-1.296,0.207-2.544,0.731-3.506c0.453-0.83,1.144-1.664,2.042-2.273
		c0.866-0.588,1.966-0.979,3.314-1.08c1.777-0.13,3.441,0.602,4.469,1.464c1.057,0.888,1.874,2.024,2.196,3.699
		c0.704,3.66-1.538,6.449-4.123,7.358c-0.785,0.276-1.855,0.331-2.621,0.693C26.729,35.474,26.012,36.226,25.894,37.376z
		 M41.689,37.376c-0.09,0.859,0.244,1.703,0.424,2.388c0.191,0.739,0.386,1.496,0.309,2.505c-0.242,3.095-2.515,5.344-5.317,5.856
		c-3.455,0.631-6.108-1.469-7.088-3.853c-0.547-1.334-0.684-3.173-0.116-4.7c0.723-1.944,2.231-3.467,4.354-4.045
		c0.729-0.2,1.496-0.31,2.157-0.617c0.899-0.417,1.667-1.348,1.657-2.62c-0.006-0.631-0.262-1.167-0.424-1.733
		c-0.169-0.584-0.299-1.167-0.347-1.812c-0.098-1.296,0.206-2.544,0.731-3.506c0.452-0.83,1.144-1.664,2.042-2.273
		c0.867-0.588,1.966-0.979,3.313-1.08c1.777-0.13,3.439,0.602,4.47,1.464c1.058,0.888,1.874,2.024,2.194,3.699
		c0.705,3.66-1.537,6.449-4.121,7.358c-0.785,0.276-1.855,0.331-2.621,0.693C42.524,35.474,41.808,36.226,41.689,37.376z
		 M49.433,47.817c-2.076-0.82-3.968-2.751-4.161-5.588c-0.143-2.104,0.684-3.701,1.618-4.776c0.454-0.523,1.063-1.044,1.772-1.425
		c0.698-0.377,1.562-0.652,2.542-0.732c3.073-0.252,5.337,1.522,6.318,3.43c0.614,1.194,0.891,2.646,0.654,4.083
		C57.583,46.44,53.604,49.464,49.433,47.817z"/>
</g>
</svg>
