<?xml version="1.0" encoding="utf-8"?>
<!-- Generator: Adobe Illustrator 16.0.0, SVG Export Plug-In . SVG Version: 6.00 Build 0)  -->
<!DOCTYPE svg PUBLIC "-//W3C//DTD SVG 1.1//EN" "http://www.w3.org/Graphics/SVG/1.1/DTD/svg11.dtd">
<svg version="1.1" id="Layer_1" xmlns="http://www.w3.org/2000/svg" xmlns:xlink="http://www.w3.org/1999/xlink" x="0px" y="0px"
	 width="864px" height="864px" viewBox="-402 -402 864 864" enable-background="new -402 -402 864 864" xml:space="preserve">
<g>
	<path fill="#96C0E6" d="M30-402c-238.577,0-432,193.423-432,432c0,238.612,193.423,432,432,432c238.584,0,432-193.388,432-432
		C462-208.577,268.584-402,30-402z M-115.526,49.814c-1.266,12.36,3.53,24.524,6.103,34.383c2.75,10.645,5.576,21.543,4.437,36.084
		c-3.474,44.592-36.204,76.979-76.549,84.318c-49.753,9.085-87.968-21.149-102.08-55.49c-7.882-19.209-9.851-45.675-1.673-67.669
		c10.413-27.998,32.125-49.929,62.697-58.254c10.512-2.875,21.53-4.479,31.064-8.88c12.973-6.004,24.004-19.413,23.843-37.729
		c-0.07-9.084-3.741-16.805-6.089-24.954c-2.405-8.395-4.296-16.805-5-26.093c-1.413-18.661,2.981-36.633,10.526-50.484
		c6.525-11.953,16.474-23.962,29.405-32.738c12.473-8.465,28.315-14.098,47.721-15.553c25.594-1.871,49.535,8.669,64.371,21.086
		c15.223,12.783,26.972,29.145,31.605,53.262C14.995-46.19-17.292-6.028-54.516,7.064c-11.299,3.973-26.712,4.76-37.744,9.963
		C-103.502,22.441-113.824,33.27-115.526,49.814z M111.928,49.814c-1.293,12.36,3.516,24.524,6.104,34.383
		c2.756,10.645,5.555,21.543,4.443,36.084c-3.487,44.592-36.211,76.979-76.556,84.318c-49.746,9.085-87.933-21.149-102.045-55.49
		c-7.875-19.209-9.851-45.675-1.673-67.669c10.414-27.998,32.126-49.929,62.698-58.254c10.498-2.875,21.544-4.479,31.064-8.88
		C48.872,8.302,59.967-5.107,59.784-23.423c-0.084-9.084-3.769-16.805-6.103-24.954c-2.419-8.395-4.304-16.805-4.992-26.093
		c-1.406-18.661,2.967-36.633,10.532-50.484c6.497-11.953,16.468-23.962,29.391-32.738c12.487-8.465,28.322-14.098,47.687-15.553
		c25.594-1.871,49.514,8.669,64.392,21.086c15.244,12.783,27,29.145,31.57,53.262C242.414-46.19,210.169-6.028,172.917,7.064
		c-11.264,3.973-26.704,4.76-37.701,9.963C123.938,22.441,113.644,33.27,111.928,49.814z M223.443,200.156
		c-29.896-11.799-57.149-39.6-59.934-80.466c-2.054-30.305,9.886-53.297,23.315-68.766c6.524-7.537,15.3-15.032,25.509-20.538
		c10.041-5.428,22.5-9.373,36.605-10.526c44.254-3.628,76.852,21.923,90.97,49.402c8.859,17.185,12.839,38.109,9.394,58.781
		C340.795,180.328,283.49,223.88,223.443,200.156z"/>
</g>
</svg>
