<?xml version="1.0" encoding="utf-8"?>
<!-- Generator: Adobe Illustrator 16.0.0, SVG Export Plug-In . SVG Version: 6.00 Build 0)  -->
<!DOCTYPE svg PUBLIC "-//W3C//DTD SVG 1.1//EN" "http://www.w3.org/Graphics/SVG/1.1/DTD/svg11.dtd">
<svg version="1.1" id="Layer_1" xmlns="http://www.w3.org/2000/svg" xmlns:xlink="http://www.w3.org/1999/xlink" x="0px" y="0px"
	 width="60px" height="60px" viewBox="0 0 60 60" enable-background="new 0 0 60 60" xml:space="preserve">
<g>
	<path fill="#96C0E6" d="M30,0C13.432,0,0,13.432,0,30c0,16.57,13.432,30,30,30c16.568,0,30-13.43,30-30C60,13.432,46.568,0,30,0z
		 M19.894,31.376c-0.088,0.858,0.245,1.703,0.424,2.388c0.191,0.739,0.387,1.496,0.308,2.506c-0.241,3.095-2.514,5.344-5.316,5.855
		c-3.455,0.631-6.109-1.469-7.089-3.854c-0.547-1.334-0.684-3.172-0.116-4.699c0.723-1.944,2.231-3.467,4.354-4.045
		c0.73-0.2,1.495-0.311,2.157-0.617c0.901-0.417,1.667-1.348,1.656-2.62c-0.005-0.631-0.26-1.167-0.423-1.733
		c-0.167-0.583-0.298-1.167-0.347-1.812c-0.098-1.296,0.207-2.544,0.731-3.506c0.453-0.83,1.144-1.664,2.042-2.273
		c0.866-0.588,1.966-0.979,3.314-1.08c1.777-0.13,3.44,0.602,4.47,1.464c1.057,0.888,1.873,2.024,2.195,3.699
		c0.704,3.66-1.538,6.449-4.123,7.358c-0.785,0.276-1.855,0.331-2.621,0.692C20.729,29.475,20.012,30.227,19.894,31.376z
		 M35.689,31.376c-0.09,0.858,0.244,1.703,0.424,2.388c0.191,0.739,0.386,1.496,0.309,2.506c-0.242,3.095-2.515,5.344-5.316,5.855
		c-3.455,0.631-6.108-1.469-7.088-3.854c-0.547-1.334-0.684-3.172-0.116-4.699c0.723-1.944,2.231-3.467,4.354-4.045
		c0.729-0.2,1.496-0.311,2.157-0.617c0.898-0.417,1.667-1.348,1.656-2.62c-0.006-0.631-0.262-1.167-0.424-1.733
		c-0.168-0.583-0.299-1.167-0.347-1.812c-0.098-1.296,0.206-2.544,0.731-3.506c0.451-0.83,1.144-1.664,2.041-2.273
		c0.867-0.588,1.967-0.979,3.313-1.08c1.777-0.13,3.439,0.602,4.47,1.464c1.059,0.888,1.875,2.024,2.194,3.699
		c0.705,3.66-1.536,6.449-4.121,7.358c-0.784,0.276-1.854,0.331-2.62,0.692C36.523,29.475,35.809,30.227,35.689,31.376z
		 M43.434,41.816c-2.076-0.819-3.969-2.75-4.162-5.588c-0.143-2.104,0.685-3.701,1.619-4.775c0.453-0.523,1.062-1.044,1.771-1.426
		c0.697-0.377,1.562-0.651,2.542-0.731c3.073-0.252,5.337,1.522,6.317,3.431c0.615,1.193,0.892,2.646,0.654,4.082
		C51.583,40.439,47.604,43.464,43.434,41.816z"/>
</g>
</svg>
