<?xml version="1.0" encoding="utf-8"?>
<!-- Generator: Adobe Illustrator 16.0.0, SVG Export Plug-In . SVG Version: 6.00 Build 0)  -->
<!DOCTYPE svg PUBLIC "-//W3C//DTD SVG 1.1//EN" "http://www.w3.org/Graphics/SVG/1.1/DTD/svg11.dtd">
<svg version="1.1" id="Layer_1" xmlns="http://www.w3.org/2000/svg" xmlns:xlink="http://www.w3.org/1999/xlink" x="0px" y="0px"
	 width="60px" height="60px" viewBox="0 0 60 60" enable-background="new 0 0 60 60" xml:space="preserve">
<path fill="#2EABE1" d="M57.273,17.5c-2.881-6.316-8.031-11.551-14.291-14.548C39.236,1.134,35.105,0.164,30.954,0h-1.691
	c-5.379,0.146-10.725,1.725-15.264,4.628C8.262,8.223,3.819,13.824,1.627,20.23C0.629,23.097,0.113,26.117,0,29.146v1.667
	c0.131,3.972,1.006,7.92,2.654,11.537c2.771,6.166,7.699,11.325,13.727,14.389c3.972,2.041,8.408,3.137,12.867,3.263h1.572
	c3.494-0.121,6.974-0.8,10.222-2.101c6.438-2.532,11.929-7.379,15.252-13.444c2.315-4.183,3.572-8.929,3.706-13.7V29.19
	C59.868,25.163,58.968,21.158,57.273,17.5z M47.664,20.833c0.304,6.883-2.243,13.815-6.803,18.962
	c-2.143,2.417-4.748,4.426-7.647,5.85c-3.288,1.627-6.936,2.479-10.594,2.619c-5.387,0.25-10.836-1.205-15.367-4.132
	c4.823,0.591,9.845-0.803,13.663-3.812c-1.921-0.043-3.828-0.688-5.36-1.854c-1.525-1.138-2.67-2.759-3.257-4.564
	c1.37,0.25,2.794,0.209,4.14-0.154c-2.164-0.454-4.149-1.693-5.482-3.459c-1.25-1.624-1.916-3.673-1.89-5.719
	c1.275,0.705,2.715,1.106,4.169,1.16c-1.893-1.271-3.29-3.253-3.824-5.468c-0.574-2.306-0.205-4.814,0.983-6.869
	c3.161,3.898,7.461,6.857,12.233,8.404c2.196,0.715,4.486,1.137,6.79,1.25c-0.403-1.8-0.284-3.723,0.394-5.443
	c0.781-2.026,2.309-3.751,4.221-4.778c1.865-1.016,4.088-1.344,6.17-0.932c1.89,0.36,3.643,1.341,4.961,2.737
	c2.064-0.407,4.051-1.177,5.863-2.24c-0.666,2.117-2.139,3.95-4.03,5.104c1.819-0.222,3.599-0.719,5.278-1.451
	C51.038,17.896,49.465,19.521,47.664,20.833z"/>
</svg>
