<?xml version="1.0" encoding="utf-8"?>
<!-- Generator: Adobe Illustrator 16.0.0, SVG Export Plug-In . SVG Version: 6.00 Build 0)  -->
<!DOCTYPE svg PUBLIC "-//W3C//DTD SVG 1.1//EN" "http://www.w3.org/Graphics/SVG/1.1/DTD/svg11.dtd">
<svg version="1.1" id="Layer_1" xmlns="http://www.w3.org/2000/svg" xmlns:xlink="http://www.w3.org/1999/xlink" x="0px" y="0px"
	 width="60px" height="60px" viewBox="6.001 6 60 60" enable-background="new 6.001 6 60 60" xml:space="preserve">
<path fill="#2EABE1" d="M63.276,23.5c-2.881-6.316-8.033-11.551-14.292-14.548C45.238,7.134,41.108,6.164,36.955,6h-1.692
	C29.885,6.146,24.539,7.725,20,10.628C14.263,14.223,9.82,19.824,7.628,26.23c-0.998,2.867-1.514,5.887-1.627,8.916v1.667
	c0.131,3.971,1.006,7.92,2.654,11.536c2.771,6.167,7.699,11.327,13.727,14.389c3.972,2.041,8.408,3.137,12.867,3.263h1.573
	c3.494-0.121,6.973-0.8,10.221-2.1c6.438-2.533,11.927-7.379,15.252-13.445c2.316-4.182,3.572-8.928,3.706-13.7v-1.566
	C65.869,31.163,64.969,27.158,63.276,23.5z M53.665,26.833c0.304,6.883-2.243,13.815-6.801,18.962
	c-2.143,2.417-4.749,4.426-7.649,5.85c-3.288,1.626-6.935,2.477-10.594,2.618c-5.387,0.25-10.836-1.205-15.367-4.131
	c4.823,0.591,9.845-0.803,13.663-3.811c-1.921-0.044-3.828-0.689-5.36-1.853c-1.525-1.138-2.67-2.759-3.257-4.565
	c1.37,0.25,2.794,0.208,4.14-0.155c-2.164-0.454-4.149-1.694-5.482-3.459c-1.25-1.624-1.916-3.673-1.89-5.719
	c1.275,0.705,2.715,1.107,4.169,1.16c-1.893-1.27-3.29-3.253-3.824-5.468c-0.574-2.306-0.205-4.814,0.983-6.869
	c3.161,3.898,7.461,6.857,12.233,8.404c2.196,0.715,4.486,1.137,6.79,1.25c-0.403-1.8-0.284-3.723,0.393-5.443
	c0.782-2.026,2.309-3.751,4.221-4.778c1.866-1.016,4.088-1.344,6.17-0.932c1.89,0.36,3.643,1.341,4.961,2.737
	c2.064-0.407,4.051-1.177,5.864-2.24c-0.667,2.117-2.14,3.95-4.031,5.104c1.819-0.222,3.599-0.719,5.279-1.451
	C57.039,23.896,55.466,25.521,53.665,26.833z"/>
</svg>
